<?xml version="1.0" encoding="utf-8"?>
<!-- Generator: Adobe Illustrator 16.0.0, SVG Export Plug-In . SVG Version: 6.00 Build 0)  -->
<!DOCTYPE svg PUBLIC "-//W3C//DTD SVG 1.1//EN" "http://www.w3.org/Graphics/SVG/1.1/DTD/svg11.dtd">
<svg version="1.1" id="Calque_1" xmlns="http://www.w3.org/2000/svg" xmlns:xlink="http://www.w3.org/1999/xlink" x="0px" y="0px"
	 width="610.212px" height="374px" viewBox="0 0 610.212 374" enable-background="new 0 0 610.212 374" xml:space="preserve">
<path fill="#FFFFFF" d="M121.398,69.049h-0.547c0.035,0,0.547-1.032,0.547-1.668V69.049z"/>
<path fill-rule="evenodd" clip-rule="evenodd" fill="#E50302" d="M153.605,152c0.189-7.656-0.644-14.667-2.797-22.044
	c-0.287-0.987-0.141-1.567,0.527-2.321c10.533-11.787,20.985-23.605,31.529-35.387c2.016-2.26,2.659-4.772,2.124-7.667
	c-1-5.403-5.639-9.03-10.739-8.367c-3.161,0.412-5.538,2.206-7.595,4.53c-8.438,9.51-16.89,19.006-25.341,28.506
	c-0.312,0.356-0.642,0.699-0.993,1.079c-1.118-1.18-2.146-2.265-3.2-3.379c1.778-1.462,3.336-3.054,4.671-4.795
	c3.409-4.871,3.287-4.192,4.789-11.281l0.649-5.242c-0.211-12.782-9.33-23.899-23.113-25.78
	c-17.625-2.408-32.84,13.482-29.411,30.937c2.183,11.124,9.058,18.096,19.958,21.13c0.382,0.104,0.887,0.335,1.018,0.641
	c0.344,0.829,0.518,1.732,0.798,2.719c-0.38-0.063-0.583-0.073-0.772-0.129c-11.679-3.274-23.353-6.572-35.034-9.829
	c-2.536-0.705-5.032-1.623-7.759-1.45c-4.721,0.303-8.488,3.793-9.089,8.557c-0.597,4.704,2.282,9.397,6.593,10.618
	c11.242,3.167,22.496,6.303,33.742,9.452c4.859,1.357,9.706,2.727,14.623,4.107c0.016,0.574,0.338,0.611,0.285,1.126
	c-0.558,5.386-1.09,9.452-1.346,14.271 M129.421,71.383c5.262-1.427,9.959,2.339,9.25,7.417c-0.337,2.402-1.321,3.091-3.358,1.901
	c-2.484-1.441-4.893-1.811-7.627-0.898c-1.664,0.552-2.566-0.41-2.767-2.088C124.587,74.889,126.501,72.173,129.421,71.383z
	 M107.221,81.957c-1.707-4.837,2.148-9.46,7.591-9.107c3.019,0.193,5.435,2.475,5.671,5.31c0.135,1.687-0.555,2.806-2.296,2.597
	c-2.865-0.351-5.147,0.493-7.295,2.396C109.127,84.723,108.026,84.244,107.221,81.957z M125.253,101.196
	c-9.174,1.352-13.203-5.98-13.203-5.98s7.755,2.374,12.911,2.365c5.156-0.008,10.414-4.705,10.414-4.705
	S134.429,99.844,125.253,101.196z"/>
<path fill-rule="evenodd" clip-rule="evenodd" fill="#FFFFFF" d="M153.241,71.771l19.376-7.75c0,0,49.563,1.022,43.885-23.364
	c-2.712-11.648-21.24-16.728-31.63-18.111c-9.427-1.257-46.817-0.055-48.074,16.024c-0.786,10.059,15.017,19.086,17.53,22.02
	L153.241,71.771z"/>
<g>
	<polygon fill="none" points="215.865,59.236 144.316,55.485 145.4,34.714 216.955,38.465 	"/>
	
		<text transform="matrix(0.9986 0.0523 -0.0523 0.9986 148.7178 44.6982)" fill="#00A1AD" font-family="'NicknameDEMO'" font-size="13.8252">Bonjour !</text>
</g>
<path fill-rule="evenodd" clip-rule="evenodd" fill="#E50302" d="M51.521,39.834c-0.002-5.711,2.684-9.79,7.518-11.191
	c4.404-1.275,9.626,0.504,11.826,4.894c1.427,2.842,2.213,6.319,2.173,9.5c-0.045,3.762-1.254,7.515-2.026,11.26
	c-0.415,2-1.057,3.953-1.439,5.956c-0.368,1.915-0.533,3.87-0.743,5.459c-5.701-0.892-11.469-1.747-17.219-2.706
	c-5.124-0.854-9.993-2.321-13.452-6.592c-5.337-6.585-2.132-16.004,6.006-17.203C46.489,38.867,48.97,39.588,51.521,39.834z"/>
<path fill-rule="evenodd" clip-rule="evenodd" fill="#E50302" d="M337.146,135.622c-1.478-7.759-3.036-15.502-4.508-23.264
	c-0.526-2.775-3.774-5.943-7.372-5.373c-0.654,0.104-1.32,0.171-1.981,0.248c-2.298,0.268-4.593,0.533-7.028,0.815
	c-0.031-0.729-0.053-1.333-0.085-1.939c-0.275-5.437-1.188-10.752-3.108-15.865c-0.257-0.687-0.152-1.143,0.281-1.712
	c6.835-8.918,13.632-17.871,20.477-26.783c1.311-1.711,1.64-3.535,1.105-5.559c-0.996-3.776-4.475-6.104-8.053-5.363
	c-2.219,0.46-3.806,1.858-5.141,3.612c-5.473,7.191-10.957,14.373-16.439,21.556c-0.204,0.27-0.418,0.529-0.646,0.817
	c-0.857-0.777-1.643-1.491-2.447-2.226c1.182-1.131,2.201-2.34,3.053-3.647c-2.523,0.271-6.797-0.835-11.682-8.648
	c0,0,8.212,3.517,14.477,0.398l0.18-3.751c-0.85-9.272-8.334-16.47-17.757-17.041c-12.62-0.767-22.558,11.308-19.197,23.496
	c2.14,7.769,7.384,12.343,15.272,13.913c0.275,0.054,0.646,0.19,0.754,0.399c0.291,0.569,0.463,1.199,0.713,1.885
	c-0.272-0.023-0.418-0.021-0.555-0.049c-8.452-1.7-16.902-3.414-25.355-5.101c-1.836-0.363-3.654-0.883-5.578-0.614
	c-3.33,0.468-5.813,3.141-5.985,6.547c-0.173,3.369,2.118,6.543,5.237,7.176c8.139,1.647,16.282,3.269,24.423,4.902
	c3.515,0.702,7.024,1.415,10.583,2.13c0.041,0.409,0.119,0.78,0.107,1.149c-0.107,3.848-0.24,7.696-0.342,11.543
	c-0.061,2.354-0.877,4.429-2.045,6.445c-1.349,2.326-2.547,4.738-3.812,7.113c-0.133,0.248-0.284,0.487-0.443,0.762
	c-0.342-0.146-0.633-0.265-0.925-0.395c-4.71-2.075-9.398-4.206-14.146-6.192c-1.248-0.518-2.682-0.783-4.037-0.808
	c-3.11-0.051-5.739,2.243-6.34,5.282c-0.699,3.54,0.711,6.552,3.689,7.875c2.99,1.323,5.98,2.641,8.973,3.957
	c4.182,1.846,8.357,3.704,12.549,5.524c3.287,1.428,7.785,1.323,10.072-3.519c1.717-3.633,3.73-7.125,5.641-10.667
	c0.147-0.275,0.496-0.586,0.781-0.622c4.827-0.597,9.658-1.154,14.49-1.713c1.687-0.194,3.371-0.38,5.074-0.571
	c0.047,0.202,0.075,0.311,0.098,0.423c1.092,5.563,2.275,11.113,3.235,16.7c0.636,3.704,4.658,6.218,8.493,5.373
	C335.703,143.404,337.932,139.757,337.146,135.622z M298.43,48.257c2.15-0.021,3.986,1.466,4.303,3.462
	c0.187,1.188-0.244,2.02-1.488,1.963c-2.049-0.097-3.623,0.622-5.043,2.088c-1.166,1.206-1.973,0.926-2.666-0.652
	C292.068,51.78,294.555,48.298,298.43,48.257z"/>
<path opacity="0.7" fill="#68696B" d="M165.708,196.867h0.99c1.461,3.219,4.357,5.556,7.813,6.303v3.669h-2.737
	c-0.845,0-1.529,0.685-1.529,1.53l0,0v2.006h-1.364c-0.54-0.008-0.982,0.423-0.988,0.963c0,0,0,0.021,0,0.032v5.216
	c0,0.539,0.437,0.976,0.974,0.976h15.978c0.54,0.007,0.982-0.423,0.992-0.96c0-0.006,0-0.011,0-0.016v-5.216
	c0-0.538-0.436-0.976-0.975-0.976h-1.377v-2.006c0-0.844-0.685-1.529-1.529-1.529h-2.737v-3.689
	c3.453-0.747,6.353-3.084,7.815-6.303h0.99c4.212,0,7.629-3.416,7.629-7.63v-0.004v-4.638c0-0.675-0.548-1.222-1.223-1.222h-6.406
	v-2.346c0-0.677-0.549-1.224-1.224-1.224h-19.874c-0.676,0-1.223,0.547-1.223,1.224v2.349h-6.407c-0.676,0-1.224,0.549-1.224,1.224
	v4.633c-0.002,4.214,3.413,7.632,7.626,7.634H165.708z M188.023,192.271v-5.033h3.768v1.995c-0.002,2.08-1.688,3.766-3.768,3.769
	h-0.025C188.01,192.762,188.023,192.516,188.023,192.271z M172.094,188.862l2.753-0.407c0.155-0.023,0.288-0.12,0.358-0.262
	l1.223-2.491c0.116-0.237,0.402-0.334,0.639-0.218c0.095,0.046,0.172,0.123,0.219,0.218l1.224,2.491
	c0.068,0.142,0.202,0.238,0.358,0.262l2.753,0.407c0.261,0.036,0.442,0.278,0.405,0.54c-0.015,0.104-0.064,0.201-0.141,0.275
	l-1.989,1.94c-0.108,0.106-0.159,0.258-0.139,0.409l0.47,2.739c0.042,0.262-0.131,0.507-0.392,0.552
	c-0.104,0.017-0.21,0-0.304-0.049l-2.446-1.293c-0.14-0.074-0.306-0.074-0.445,0l-2.445,1.293c-0.233,0.123-0.522,0.033-0.646-0.2
	c-0.049-0.093-0.068-0.198-0.049-0.303l0.47-2.739c0.021-0.151-0.03-0.303-0.14-0.409l-1.99-1.94
	c-0.191-0.182-0.197-0.484-0.015-0.675C171.898,188.929,171.991,188.879,172.094,188.862z M161.938,187.231h3.771v5.04
	c0,0.244,0,0.49,0.023,0.73h-0.023c-2.081-0.003-3.767-1.688-3.771-3.769V187.231z"/>
<path fill="#FFFFFF" d="M165.708,194.965h0.99c1.461,3.217,4.357,5.556,7.813,6.301v3.671h-2.737c-0.845,0-1.529,0.684-1.529,1.529
	l0,0v2.006h-1.364c-0.54-0.007-0.982,0.424-0.988,0.963c0,0.01,0,0.021,0,0.033v5.215c0,0.538,0.437,0.976,0.974,0.976h15.978
	c0.54,0.007,0.982-0.421,0.992-0.96v-0.016v-5.215c0-0.539-0.436-0.977-0.975-0.977h-1.377v-2.006c0-0.845-0.685-1.529-1.529-1.529
	h-2.737v-3.69c3.453-0.745,6.353-3.084,7.815-6.301h0.99c4.212,0,7.629-3.416,7.629-7.63v-0.004v-4.638
	c0-0.675-0.548-1.223-1.223-1.223h-6.406v-2.347c0-0.675-0.549-1.222-1.224-1.222h-19.874c-0.676,0-1.223,0.547-1.223,1.222v2.35
	h-6.407c-0.676,0-1.224,0.549-1.224,1.225v4.632c-0.002,4.214,3.413,7.632,7.626,7.635H165.708z M188.023,190.368v-5.032h3.768
	v1.994c-0.002,2.081-1.688,3.767-3.768,3.768h-0.025C188.01,190.858,188.023,190.614,188.023,190.368z M172.094,186.96l2.753-0.408
	c0.155-0.022,0.288-0.119,0.358-0.261l1.223-2.491c0.116-0.237,0.402-0.334,0.639-0.219c0.095,0.047,0.172,0.124,0.219,0.219
	l1.224,2.491c0.068,0.142,0.202,0.238,0.358,0.261l2.753,0.408c0.261,0.036,0.442,0.278,0.405,0.539
	c-0.015,0.104-0.064,0.201-0.141,0.276l-1.989,1.94c-0.108,0.106-0.159,0.257-0.139,0.409l0.47,2.74
	c0.042,0.259-0.131,0.506-0.392,0.55c-0.104,0.018-0.21,0-0.304-0.049l-2.446-1.293c-0.14-0.073-0.306-0.073-0.445,0l-2.445,1.293
	c-0.233,0.123-0.522,0.034-0.646-0.199c-0.049-0.092-0.068-0.199-0.049-0.302l0.47-2.74c0.021-0.152-0.03-0.303-0.14-0.409
	l-1.99-1.94c-0.191-0.183-0.197-0.484-0.015-0.675C171.898,187.026,171.991,186.977,172.094,186.96z M161.938,185.329h3.771v5.039
	c0,0.246,0,0.49,0.023,0.729h-0.023c-2.081-0.001-3.767-1.687-3.771-3.768V185.329z"/>
<g>
	<g>
		<circle opacity="0.7" fill="#68696B" cx="120.696" cy="200.746" r="22.696"/>
		<circle fill="#FFFFFF" cx="120.696" cy="197.732" r="22.696"/>
		<path fill="#E50302" d="M101.707,198.794c0,10.488,8.502,18.989,18.989,18.989s18.989-8.501,18.989-18.989
			c0-2.902,0-8.633-3.436-13.008h-30.375C102.813,188.663,101.707,195.892,101.707,198.794z"/>
	</g>
	<g>
		<g>
			<path fill="#FFFFFF" d="M117.758,194.345c0,0.865-0.141,1.703-0.391,2.539c-0.196,0.643-0.419,1.174-0.727,1.731
				c-0.195,0.335-0.475,0.586-0.781,0.894c-0.223,0.223-0.53,0.362-0.893,0.391c-0.782,0.111-1.563,0.223-2.345,0.139
				c-0.782-0.084-1.424-0.418-1.843-1.116c-0.362-0.586-0.726-1.144-0.837-1.897c-0.084-0.643-0.112-1.256-0.028-1.898
				c0.084-0.697,0.111-1.396,0.195-2.094c0.084-0.753,0.141-1.423,0.336-2.176c0.195-0.811,0.697-1.368,1.507-1.676
				c0.195-0.084,0.391-0.139,0.642-0.195c0.251-0.084,0.503-0.139,0.754-0.111c0.642,0,1.256,0.111,1.786,0.363
				c0.195,0.111,0.419,0.167,0.614,0.251c0.781,0.335,1.228,0.948,1.535,1.759c0.251,0.67,0.334,1.395,0.418,2.093L117.758,194.345z
				 M112.873,194.68v0.503c0,0.362,0.084,0.725,0.251,1.061c0.14,0.334,0.446,0.418,0.754,0.278c0.224-0.083,0.362-0.278,0.391-0.53
				c0.028-0.195,0-0.334,0-0.53l0.056-1.032c0-0.391-0.111-0.781-0.307-1.145c-0.111-0.195-0.279-0.335-0.503-0.391
				c-0.307-0.084-0.474,0.027-0.53,0.307c-0.084,0.53-0.056,0.949-0.14,1.479H112.873z M117.98,206.179h-1.423
				c-0.363,0.028-0.53-0.167-0.559-0.529c0-0.085,0-0.141,0.028-0.168c0.027-0.335,0.056-0.67,0.139-1.005
				c0.084-0.446,0.224-0.894,0.335-1.312c0.224-0.754,0.447-1.508,0.643-2.262l0.558-2.037c0.475-1.675,1.006-3.321,1.451-4.996
				c0.252-0.977,0.503-1.87,0.811-2.847l0.418-1.591l0.084-0.363c0.027-0.195,0.14-0.307,0.335-0.335
				c0.251,0,0.475-0.028,0.726-0.028c0.67,0.084,1.312,0.057,1.981-0.027c0.559-0.084,0.782,0.168,0.67,0.697
				c-0.111,0.698-0.14,1.396-0.251,2.094c-0.084,0.643-0.195,1.284-0.335,1.981c-0.195,0.894-0.335,1.814-0.53,2.735
				c-0.084,0.419-0.195,0.865-0.307,1.284c-0.308,1.089-0.587,2.093-0.949,3.126c-0.084,0.195-0.084,0.419-0.168,0.643
				c-0.251,0.893-0.475,1.813-0.697,2.734l-0.308,1.535c-0.027,0.195-0.083,0.308-0.111,0.391c-0.084,0.195-0.251,0.308-0.446,0.308
				c-0.14-0.028-0.307,0-0.447,0C119.069,206.207,118.539,206.179,117.98,206.179z M131.238,202.438
				c-0.223,0.977-0.559,1.898-1.117,2.764c-0.474,0.781-1.227,1.284-2.12,1.479c-1.312,0.307-2.513,0-3.712-0.698
				c-0.252-0.195-0.419-0.391-0.559-0.614c-0.252-0.446-0.391-0.921-0.475-1.451c-0.084-0.753-0.084-1.507-0.056-2.261
				c0.028-0.559,0-1.088,0.083-1.619c0.084-0.893,0-1.758,0.141-2.65c0.083-0.531,0.167-1.006,0.391-1.48
				c0.418-0.754,0.921-1.395,1.786-1.618c0.642-0.195,1.2-0.308,1.842-0.446c0.308-0.084,0.53-0.028,0.837,0.055
				c1.229,0.308,2.121,1.006,2.791,2.094c0.195,0.363,0.308,0.754,0.336,1.172c0.084,0.531,0.084,1.006,0.111,1.535
				c0.027,0.224,0,0.447,0,0.67C131.545,200.401,131.434,201.406,131.238,202.438z M128.168,198.95
				c-0.027-0.419-0.084-0.838-0.167-1.256c-0.028-0.307-0.196-0.531-0.559-0.614c-0.586-0.196-0.921,0-1.005,0.586l-0.056,0.949
				c0,0.475-0.028,0.921-0.028,1.396c0.028,0.53,0.141,1.033,0.057,1.591c-0.028,0.195,0,0.308,0,0.503
				c0.027,0.418,0.334,0.586,0.697,0.502s0.614-0.307,0.754-0.67c0.307-0.559,0.335-1.172,0.363-1.814L128.168,198.95z"/>
		</g>
	</g>
</g>
<path opacity="0.7" fill-rule="evenodd" clip-rule="evenodd" fill="#68696B" d="M79.102,203.795
	c-0.612-3.097-1.708-6.03-3.034-8.882c-2.516-5.414-5.674-10.449-9.115-15.312c-1.021-1.443-2.089-2.854-3.174-4.333
	c-0.14,0.162-0.222,0.251-0.295,0.346c-3.6,4.681-6.895,9.563-9.748,14.736c-1.987,3.606-3.742,7.316-4.85,11.305
	c-0.844,3.03-1.128,6.078-0.375,9.18c2.201,9.06,11.971,14.239,20.699,10.963C76.517,219.053,80.635,211.548,79.102,203.795z
	 M65.623,203.633c0.029,0.215,0,0.428,0.029,0.642c0.032,0.825,0.122,1.651,0.153,2.476c0.031,0.733,0,1.498,0,2.263v0.151
	c-0.031,1.101-0.062,2.17-0.062,3.271c0,0.58,0,1.1,0.03,1.618c0,0.733-0.182,0.917-0.885,0.887l-1.833-0.061
	c-0.583,0-1.162,0.03-1.772,0.03c-0.063,0.03-0.154,0.03-0.246,0c-0.305-0.03-0.457-0.214-0.488-0.488l-0.092-1.07
	c0-0.52-0.03-1.039-0.03-1.528s0.03-0.947,0.03-1.405c0-0.49-0.061-0.947-0.061-1.436c-0.031-0.368,0-0.734,0-1.101v-0.459
	c0.03-0.52,0.122-1.038,0.03-1.56c-0.03-0.488,0.03-0.947,0.03-1.405c0.031-1.191,0-2.414,0.031-3.605l0.123-3.821
	c0.029-0.366,0.029-0.764,0.029-1.13c0.03-0.336,0.184-0.521,0.458-0.612c0.215-0.03,0.366-0.061,0.458-0.061
	c0.643-0.031,1.346,0.03,2.109,0.152c0.457,0.092,0.918,0.031,1.375,0.123h0.184c0.611,0,0.825,0.215,0.855,0.825
	c0,1.467-0.122,2.934-0.337,4.4C65.53,201.678,65.501,202.654,65.623,203.633z M65.895,190.672c0.031,0.162,0,0.332,0,0.5v0.035
	c-0.031,0.244-0.062,0.48-0.062,0.727c0,0.128,0,0.242,0.03,0.358c0,0.163-0.182,0.203-0.885,0.196l-1.833-0.015
	c-0.583,0-1.162,0.008-1.772,0.008c-0.063,0.007-0.154,0.007-0.246,0c-0.305-0.008-0.457-0.047-0.488-0.109l-0.092-0.236
	c0-0.115-0.03-0.232-0.03-0.339c0-0.109,0.03-0.21,0.03-0.312c0-0.109-0.061-0.209-0.061-0.319c-0.031-0.081,0-0.162,0-0.242v-0.103
	c0.03-0.115,0.122-0.23,0.03-0.345c-0.03-0.109,0.03-0.212,0.03-0.313c0.031-0.265,0-0.535,0.031-0.8l0.123-0.847
	c0.029-0.082,0.029-0.169,0.029-0.25c0.03-0.074,0.184-0.116,0.458-0.137c0.215-0.006,0.366-0.015,0.458-0.015
	c0.643-0.006,1.346,0.009,2.109,0.035c0.457,0.021,0.918,0.008,1.375,0.027h0.184c0.611,0,0.825,0.047,0.855,0.183L65.895,190.672z"
	/>
<path fill-rule="evenodd" clip-rule="evenodd" fill="#FFFFFF" d="M79.102,202.901c-0.612-3.097-1.708-6.03-3.034-8.882
	c-2.516-5.414-5.674-10.449-9.115-15.312c-1.021-1.442-2.089-2.854-3.174-4.333c-0.14,0.162-0.222,0.251-0.295,0.346
	c-3.6,4.681-6.895,9.563-9.748,14.736c-1.987,3.607-3.742,7.317-4.85,11.305c-0.844,3.03-1.128,6.078-0.375,9.18
	c2.201,9.06,11.971,14.239,20.699,10.963C76.517,218.159,80.635,210.654,79.102,202.901z M65.623,202.739
	c0.029,0.215,0,0.428,0.029,0.642c0.032,0.825,0.122,1.651,0.153,2.476c0.031,0.733,0,1.498,0,2.264v0.15
	c-0.031,1.102-0.062,2.17-0.062,3.271c0,0.58,0,1.1,0.03,1.618c0,0.733-0.182,0.917-0.885,0.887l-1.833-0.061
	c-0.583,0-1.162,0.03-1.772,0.03c-0.063,0.03-0.154,0.03-0.246,0c-0.305-0.03-0.457-0.214-0.488-0.488l-0.092-1.07
	c0-0.519-0.03-1.039-0.03-1.528s0.03-0.947,0.03-1.405c0-0.49-0.061-0.947-0.061-1.436c-0.031-0.367,0-0.734,0-1.101v-0.459
	c0.03-0.52,0.122-1.038,0.03-1.56c-0.03-0.488,0.03-0.947,0.03-1.405c0.031-1.191,0-2.414,0.031-3.605l0.123-3.821
	c0.029-0.366,0.029-0.764,0.029-1.13c0.03-0.336,0.184-0.52,0.458-0.612c0.215-0.03,0.366-0.061,0.458-0.061
	c0.643-0.031,1.346,0.03,2.109,0.153c0.457,0.092,0.918,0.03,1.375,0.122h0.184c0.611,0,0.825,0.215,0.855,0.825
	c0,1.467-0.122,2.935-0.337,4.4C65.53,200.784,65.501,201.761,65.623,202.739z M65.97,189.043c0.031,0.183,0,0.369,0,0.559v0.038
	c-0.031,0.271-0.062,0.534-0.062,0.808c0,0.143,0,0.27,0.03,0.399c0,0.181-0.182,0.226-0.885,0.218l-1.833-0.016
	c-0.583,0-1.162,0.009-1.772,0.009c-0.063,0.007-0.154,0.007-0.246,0c-0.305-0.009-0.457-0.053-0.488-0.122l-0.092-0.262
	c0-0.13-0.03-0.26-0.03-0.378c0-0.122,0.03-0.234,0.03-0.347c0-0.122-0.061-0.233-0.061-0.355c-0.031-0.09,0-0.182,0-0.271v-0.114
	c0.03-0.128,0.122-0.257,0.03-0.384c-0.03-0.122,0.03-0.235,0.03-0.347c0.031-0.295,0-0.597,0.031-0.891l0.123-0.942
	c0.029-0.092,0.029-0.188,0.029-0.279c0.03-0.082,0.184-0.128,0.458-0.152c0.215-0.006,0.366-0.016,0.458-0.016
	c0.643-0.005,1.346,0.01,2.109,0.04c0.457,0.021,0.918,0.008,1.375,0.029h0.184c0.611,0,0.825,0.053,0.855,0.203L65.97,189.043z"/>
<g>
	<path fill-rule="evenodd" clip-rule="evenodd" fill="#C0262D" d="M128.541,275.852c2.626,6.648-12.299,4.434-22.782,6.799
		c-10.486,2.363-21.989,0.014-35.475-0.269c-13.488-0.283-29.453,8.56-29.453,8.56s13.962-0.492,23.327,8.941
		c9.366,9.435,0.809,14.773-1.121,19.072c-1.93,4.297,5.159,4.803,6.267,9.734c1.104,4.933-4.914,13.871-4.914,13.871
		s9.077,3.229,25.562-7.522c16.484-10.749,17.756-15.38,24.469-20.409c6.71-5.027,21.494-10.154,23.82-10.932
		C145.219,301.365,138.467,272.639,128.541,275.852z"/>
	<path fill-rule="evenodd" clip-rule="evenodd" fill="#E50302" d="M176.585,333.396c-1.478-7.759-3.036-15.502-4.508-23.264
		c-0.526-2.775-3.774-5.943-7.372-5.373c-0.654,0.104-1.32,0.171-1.981,0.248c-2.298,0.268-4.593,0.533-7.028,0.815
		c-0.031-0.729-0.053-1.333-0.085-1.939c-0.275-5.437-1.188-10.752-3.108-15.865c-0.257-0.687-0.152-1.143,0.281-1.712
		c6.835-8.918,13.632-17.871,20.477-26.783c1.311-1.711,1.64-3.535,1.105-5.559c-0.996-3.776-4.475-6.104-8.053-5.363
		c-2.219,0.46-3.806,1.858-5.141,3.612c-5.473,7.191-10.957,14.373-16.439,21.556c-0.204,0.27-0.418,0.529-0.646,0.817
		c-0.857-0.777-1.643-1.491-2.447-2.226c1.182-1.131,2.201-2.34,3.053-3.647c-2.523,0.271-6.797-0.835-11.682-8.648
		c0,0,8.212,3.517,14.477,0.398l0.18-3.751c-0.85-9.272-8.334-16.47-17.757-17.041c-12.62-0.767-22.558,11.308-19.197,23.496
		c2.14,7.769,7.384,12.343,15.272,13.913c0.275,0.054,0.646,0.19,0.754,0.399c0.291,0.569,0.463,1.199,0.713,1.885
		c-0.272-0.023-0.418-0.021-0.555-0.049c-8.452-1.7-16.902-3.414-25.355-5.101c-1.836-0.363-3.654-0.883-5.578-0.614
		c-3.33,0.468-5.813,3.141-5.985,6.547c-0.173,3.369,2.118,6.543,5.237,7.176c8.139,1.647,16.282,3.269,24.423,4.902
		c3.515,0.702,7.024,1.415,10.583,2.13c0.041,0.409,0.119,0.78,0.107,1.149c-0.107,3.848-0.24,7.696-0.342,11.543
		c-0.061,2.354-0.877,4.429-2.045,6.445c-1.349,2.326-2.547,4.738-3.812,7.113c-0.133,0.248-0.284,0.487-0.443,0.762
		c-0.342-0.146-0.633-0.265-0.925-0.395c-4.71-2.075-9.398-4.206-14.146-6.192c-1.248-0.518-2.682-0.783-4.037-0.808
		c-3.11-0.051-5.739,2.243-6.34,5.282c-0.699,3.54,0.711,6.552,3.689,7.875c2.99,1.323,5.98,2.641,8.973,3.957
		c4.182,1.846,8.357,3.704,12.549,5.524c3.287,1.428,7.785,1.323,10.072-3.519c1.717-3.633,3.73-7.125,5.641-10.667
		c0.147-0.275,0.496-0.586,0.781-0.622c4.827-0.597,9.658-1.154,14.49-1.713c1.687-0.194,3.371-0.38,5.074-0.571
		c0.047,0.202,0.075,0.311,0.098,0.423c1.092,5.563,2.275,11.113,3.235,16.7c0.636,3.704,4.658,6.218,8.493,5.373
		C175.143,341.179,177.371,337.531,176.585,333.396z M137.869,246.031c2.15-0.021,3.986,1.466,4.303,3.462
		c0.187,1.188-0.244,2.02-1.488,1.963c-2.049-0.097-3.623,0.622-5.043,2.088c-1.166,1.206-1.973,0.926-2.666-0.652
		C131.508,249.555,133.994,246.072,137.869,246.031z"/>
	<g>
		<path fill-rule="evenodd" clip-rule="evenodd" fill="#E50302" d="M68.136,342.015c-0.874,0-1.587-0.061-2.131-0.135
			c1.648-2.71,5.214-9.216,4.274-13.409c-0.587-2.614-2.597-4.134-4.212-5.355c-2.103-1.59-2.779-2.277-2.118-3.75l0.236-0.522
			c1.892-4.161,4.246-9.34-5.226-18.88c-6.151-6.196-11.752-8.563-15.045-9.466c4.923-2.375,15.985-7.122,25.729-7.122
			c0.207,0,0.413,0.002,0.619,0.007c4.34,0.091,8.465,0.395,12.454,0.688c2.54,0.188,4.949,0.365,7.328,0.483
			c1.103,1.951,2.923,3.335,4.97,3.751c5.48,1.108,10.962,2.206,16.443,3.303l17.858,3.587c0.009,0.094,0.015,0.187,0.012,0.28
			c-0.049,1.731-0.102,3.459-0.155,5.188c-0.056,1.8-0.11,3.601-0.16,5.4c-4.926,1.992-11.341,4.881-15.193,7.766
			c-0.588,0.441-1.153,0.894-1.716,1.371l-0.438-0.191c-0.887-0.388-1.773-0.762-2.666-1.136c-1.311-0.543-2.874-0.872-4.405-0.872
			h-0.119c-3.485,0-6.522,2.547-7.22,6.076c-0.625,3.166,0.263,5.975,2.392,7.777c-2.909,2.351-6.273,4.762-10.243,7.35
			c-9.903,6.459-17.032,7.813-21.269,7.813C68.136,342.017,68.136,342.015,68.136,342.015z"/>
		<path fill="#E9E5DC" d="M69.645,284.375L69.645,284.375c0.199,0,0.399,0.002,0.598,0.006c4.314,0.091,8.426,0.394,12.401,0.688
			c2.358,0.174,4.604,0.339,6.822,0.457c1.262,1.947,3.194,3.321,5.353,3.759c5.48,1.11,10.965,2.207,16.447,3.305l7.98,1.599
			c2.1,0.42,4.198,0.843,6.306,1.269l2.761,0.557c-0.043,1.538-0.091,3.078-0.138,4.617c-0.049,1.584-0.098,3.168-0.143,4.752
			c-6.725,2.749-11.704,5.319-14.813,7.647c-0.436,0.328-0.86,0.661-1.281,1.006c-0.848-0.371-1.697-0.729-2.557-1.088
			c-1.44-0.598-3.09-0.947-4.771-0.947h-0.134c-3.962,0-7.411,2.887-8.2,6.883c-0.601,3.037,0.108,5.862,1.874,7.887
			c-2.68,2.111-5.74,4.28-9.292,6.597c-9.697,6.324-16.622,7.651-20.723,7.651c-0.157,0-0.308-0.004-0.454-0.007
			c1.855-3.283,4.457-8.815,3.573-12.759c-0.667-2.971-2.839-4.614-4.585-5.935c-2.202-1.665-2.111-1.869-1.809-2.543l0.234-0.518
			c2.02-4.441,4.531-9.968-5.426-19.999c-4.971-5.006-9.629-7.584-13.063-8.911C52.093,287.888,61.375,284.375,69.645,284.375
			 M69.645,282.375c-13.348,0-28.813,8.566-28.813,8.566s8.054,0.292,17.419,9.726c9.366,9.435,6.717,13.989,4.787,18.288
			c-1.93,4.297,5.159,4.803,6.267,9.734c1.104,4.933-4.914,13.871-4.914,13.871s1.278,0.455,3.746,0.455
			c4.108,0,11.516-1.26,21.815-7.978c4.986-3.251,8.574-5.94,11.348-8.252c-2.532-1.452-3.707-4.243-3.061-7.517
			c0.594-3.006,3.173-5.27,6.238-5.27c0.034,0,0.067,0,0.102,0c1.355,0,2.789,0.277,4.037,0.795
			c1.229,0.514,2.445,1.049,3.666,1.578c0.662-0.58,1.363-1.159,2.139-1.741c3.834-2.872,10.3-5.776,15.575-7.884
			c0.101-3.746,0.229-7.495,0.333-11.241c0.012-0.369-0.066-0.741-0.107-1.15c-3.559-0.715-7.068-1.428-10.583-2.13
			c-8.141-1.634-16.284-3.255-24.423-4.902c-2.002-0.406-3.659-1.862-4.547-3.742c-6.313-0.287-13.054-1.047-20.384-1.2
			C70.072,282.377,69.858,282.375,69.645,282.375L69.645,282.375z"/>
	</g>
</g>
<g>
	<g>
		<path fill-rule="evenodd" clip-rule="evenodd" fill="#E50302" d="M530.198,177.178c0.229-9.271-0.78-17.76-3.388-26.691
			c-0.348-1.197-0.169-1.898,0.639-2.811c12.754-14.273,25.41-28.582,38.178-42.848c2.44-2.736,3.22-5.779,2.572-9.284
			c-1.211-6.542-6.828-10.934-13.004-10.131c-3.828,0.499-6.705,2.672-9.196,5.485c-10.216,11.515-20.45,23.013-30.683,34.516
			c-0.377,0.432-0.778,0.848-1.203,1.307c-1.354-1.428-2.6-2.742-3.875-4.092c2.153-1.77,4.039-3.697,5.655-5.805
			c4.129-5.898,3.98-5.076,5.8-13.66l0.785-6.348c-0.254-15.477-11.297-28.938-27.985-31.215
			c-21.341-2.916-39.765,16.325-35.612,37.458c2.642,13.471,10.967,21.912,24.165,25.586c0.463,0.126,1.074,0.405,1.233,0.775
			c0.415,1.003,0.627,2.097,0.966,3.292c-0.46-0.077-0.707-0.089-0.936-0.156c-14.142-3.965-28.276-7.958-42.421-11.902
			c-3.071-0.854-6.094-1.965-9.395-1.755c-5.717,0.367-10.277,4.592-11.006,10.359c-0.722,5.696,2.765,11.38,7.983,12.857
			c13.612,3.835,27.239,7.633,40.856,11.446c5.883,1.644,11.753,3.301,17.705,4.973c0.02,0.695,0.41,0.74,0.346,1.362
			c-0.675,6.523-1.318,11.445-1.629,17.28 M500.915,79.563c6.371-1.727,12.059,2.831,11.199,8.98
			c-0.407,2.909-1.599,3.742-4.066,2.303c-3.008-1.745-5.923-2.192-9.235-1.088c-2.015,0.667-3.106-0.497-3.349-2.528
			C495.062,83.808,497.379,80.521,500.915,79.563z M474.033,92.367c-2.066-5.857,2.602-11.454,9.191-11.027
			c3.655,0.234,6.58,2.996,6.867,6.429c0.163,2.042-0.672,3.397-2.78,3.144c-3.47-0.424-6.233,0.597-8.833,2.902
			C476.343,95.715,475.01,95.136,474.033,92.367z M495.868,115.662c-11.108,1.637-15.987-7.24-15.987-7.24s9.39,2.874,15.633,2.863
			c6.244-0.009,12.61-5.697,12.61-5.697S506.979,114.026,495.868,115.662z"/>
		<path fill-rule="evenodd" clip-rule="evenodd" fill="#E50302" d="M483.379,163.34c0.06-0.574-0.301-0.479-0.318-1.119
			c-5.489-1.542-10.903-3.001-16.329-4.517c-12.559-3.517-25.126-6.985-37.681-10.523c-0.921-0.26-1.781-0.647-2.569-1.165
			c-6.839-0.494-14.022-1.086-21.63-1.245c-20.079-0.422-43.846,12.747-43.846,12.747s20.783-0.731,34.727,13.313
			s1.203,21.995-1.669,28.395c-2.874,6.396,7.681,7.15,9.329,14.49c1.645,7.344-7.316,20.651-7.316,20.651
			s13.514,4.807,38.054-11.198c24.54-16.002,26.433-23.173,36.427-30.659c6.682-5.007,18.737-9.509,27.027-13.509h-15.707
			C482.163,174,482.757,169.355,483.379,163.34z"/>
	</g>
	<g>
		<path fill="#E50302" d="M406.299,129.5l-1.074,2.646l-2.686,0.892c-0.123,0.152-0.244,0.306-0.365,0.462
			c0,0,0.034,0.277,0.189,0.398l2.318,1.813l-0.213,2.82c-0.121,0.153,0.031,0.276,0.19,0.396l0,0
			c0.153,0.121,0.428,0.088,0.55-0.067l2.465-1.559l2.646,1.071c0.158,0.123,0.43,0.088,0.553-0.064c0,0,0.12-0.154,0.088-0.432
			l-0.768-2.842l1.813-2.32c0.121-0.154,0.24-0.309,0.087-0.429c-0.034-0.275-0.188-0.396-0.464-0.363l-2.943-0.057l-1.406-2.347
			c-0.154-0.12-0.309-0.242-0.586-0.209C406.541,129.189,406.418,129.346,406.299,129.5z"/>
		<path fill="#E50302" d="M443.642,96.025l-0.478-1.618l1.088-1.393c0.122-0.153,0.244-0.311,0.088-0.431
			c-0.035-0.271-0.189-0.396-0.461-0.363l-1.689-0.07l-0.874-1.43c-0.156-0.122-0.309-0.245-0.585-0.211
			c-0.275,0.033-0.396,0.191-0.518,0.344l-0.504,1.598l-1.621,0.48c-0.119,0.154-0.239,0.307-0.361,0.465
			c0,0,0.034,0.275,0.188,0.396l1.39,1.089l-0.07,1.686c-0.119,0.155,0.033,0.275,0.188,0.396l0,0
			c0.155,0.121,0.433,0.089,0.55-0.066l1.434-0.875l1.478,0.657c0.153,0.122,0.429,0.088,0.551-0.066
			C443.553,96.455,443.676,96.301,443.642,96.025z"/>
		<path fill="#E50302" d="M528.708,72.378l-0.479-1.618l1.088-1.392c0.122-0.155,0.242-0.308,0.088-0.431
			c-0.034-0.273-0.189-0.396-0.464-0.359l-1.688-0.074l-0.874-1.43c-0.153-0.123-0.308-0.245-0.583-0.211
			c-0.277,0.034-0.397,0.189-0.519,0.344l-0.502,1.6l-1.62,0.479c-0.121,0.154-0.243,0.309-0.363,0.463c0,0,0.035,0.276,0.189,0.396
			l1.391,1.09l-0.074,1.685c-0.119,0.155,0.033,0.277,0.189,0.398l0,0c0.156,0.12,0.429,0.085,0.553-0.069l1.43-0.877l1.48,0.661
			c0.152,0.12,0.427,0.085,0.549-0.065C528.619,72.809,528.741,72.654,528.708,72.378z"/>
		<path fill="#E50302" d="M560.485,147.018l-0.479-1.62l1.088-1.391c0.123-0.156,0.242-0.311,0.087-0.43
			c-0.034-0.278-0.188-0.398-0.464-0.364l-1.686-0.072l-0.873-1.431c-0.156-0.121-0.311-0.244-0.586-0.209
			c-0.277,0.033-0.396,0.189-0.518,0.344l-0.504,1.6l-1.619,0.478c-0.123,0.154-0.24,0.307-0.362,0.464c0,0,0.032,0.275,0.188,0.396
			l1.393,1.088l-0.075,1.687c-0.12,0.154,0.036,0.272,0.188,0.396l0,0c0.156,0.123,0.43,0.088,0.552-0.066l1.431-0.874l1.48,0.659
			c0.152,0.118,0.428,0.086,0.548-0.071C560.398,147.446,560.519,147.292,560.485,147.018z"/>
		<path fill="#E50302" d="M462.288,170.643l0.216-2.823l2.342-1.402c0.275-0.035,0.397-0.19,0.362-0.466
			c-0.032-0.274-0.187-0.397-0.342-0.519l-2.646-1.073l-0.615-2.722c-0.156-0.121-0.311-0.24-0.465-0.363
			c0,0-0.273,0.037-0.396,0.189l-1.968,2.199l-2.823-0.212c-0.152-0.122-0.276,0.033-0.396,0.187
			c-0.121,0.155-0.088,0.431,0.066,0.55l1.561,2.466l-1.072,2.649c-0.122,0.153-0.089,0.43,0.067,0.552
			c0.153,0.122,0.153,0.122,0.153,0.122c0.154,0.119,0.31,0.239,0.43,0.085l2.723-0.614l2.197,1.971c0,0,0.309,0.242,0.43,0.086
			C462.234,171.351,462.354,171.195,462.288,170.643z"/>
		<path fill="#E50302" d="M450.271,66.376l0.493-5.093l4.447-2.503c0.276-0.034,0.397-0.188,0.363-0.465
			c-0.035-0.274-0.188-0.396-0.344-0.517l-4.711-1.938l-1.035-5.047c-0.157-0.121-0.313-0.241-0.465-0.364
			c0,0-0.277,0.034-0.397,0.189l-3.299,3.9l-5.247-0.616c-0.155-0.123-0.276,0.035-0.398,0.189c-0.117,0.153-0.086,0.43,0.068,0.551
			l2.778,4.414l-2.095,4.59c-0.123,0.155-0.086,0.43,0.068,0.548c0.153,0.122,0.153,0.122,0.153,0.122
			c0.155,0.124,0.312,0.242,0.432,0.09l4.893-1.159l3.776,3.452c0,0,0.309,0.241,0.43,0.085
			C450.457,66.771,450.578,66.619,450.271,66.376z"/>
		<path fill="#E50302" d="M552.602,70.097l0.496-5.091l4.445-2.505c0.277-0.032,0.395-0.187,0.364-0.464
			c-0.034-0.275-0.189-0.396-0.347-0.517l-4.707-1.939l-1.039-5.048c-0.156-0.12-0.311-0.24-0.464-0.36c0,0-0.278,0.034-0.396,0.187
			l-3.3,3.904l-5.094-0.497c-0.154-0.124-0.274,0.032-0.395,0.187c-0.123,0.154-0.088,0.43,0.066,0.553l2.778,4.412l-2.095,4.592
			c-0.121,0.153-0.09,0.43,0.068,0.551c0.153,0.12,0.153,0.12,0.153,0.12c0.153,0.12,0.312,0.242,0.431,0.091l4.893-1.162
			l3.778,3.453c0,0,0.31,0.24,0.43,0.085C552.789,70.494,552.909,70.34,552.602,70.097z"/>
		<path fill="#E50302" d="M584.291,119.351l0.334-2.978l2.346-1.403c0.276-0.037,0.396-0.188,0.361-0.466
			c-0.032-0.277-0.187-0.396-0.344-0.517l-2.646-1.074l-0.611-2.722c-0.155-0.117-0.312-0.241-0.465-0.363
			c0,0-0.276,0.033-0.396,0.189l-2.277,1.957l-2.824-0.214c-0.153-0.12-0.274,0.032-0.396,0.188
			c-0.121,0.157-0.088,0.433,0.067,0.549l1.562,2.47l-1.074,2.648c-0.12,0.152-0.089,0.43,0.066,0.546
			c0.154,0.124,0.154,0.124,0.154,0.124c0.154,0.12,0.309,0.242,0.433,0.086l2.72-0.611l2.199,1.966c0,0,0.309,0.244,0.428,0.089
			C584.05,119.66,584.171,119.506,584.291,119.351z"/>
		<path fill="#E50302" d="M525.58,164.567l0.369-2.7l2.5-1.283c0.275-0.034,0.396-0.189,0.361-0.465
			c0.123-0.154-0.035-0.275-0.188-0.398l-2.527-1.227l-0.491-2.876c-0.157-0.121-0.31-0.242-0.464-0.363
			c-0.155-0.121-0.43-0.089-0.553,0.067l-1.847,2.044l-2.854-0.489c-0.156-0.12-0.276,0.031-0.396,0.188
			c0.033,0.276-0.088,0.431,0.066,0.551l1.284,2.5l-1.228,2.525c-0.121,0.157-0.086,0.431,0.066,0.553
			c0.154,0.121,0.154,0.121,0.154,0.121c0.153,0.122,0.311,0.243,0.429,0.087l2.88-0.492l1.92,2.002
			c0.156,0.119,0.156,0.119,0.432,0.088C525.616,164.846,525.735,164.689,525.58,164.567z"/>
		<path fill="#E50302" d="M412.438,87.824c-0.154-0.12-0.277,0.034-0.396,0.187c-0.121,0.155-0.086,0.431,0.066,0.554l1.561,2.465
			l-1.075,2.648c-0.12,0.154-0.085,0.43,0.069,0.55c0.155,0.121,0.155,0.121,0.155,0.121c0.153,0.122,0.309,0.242,0.429,0.085
			l2.998-0.643l2.195,1.967c0,0,0.156,0.119,0.432,0.089c0.276-0.035,0.396-0.191,0.361-0.466l0.215-2.823l2.344-1.405
			c0.276-0.032,0.399-0.189,0.365-0.465c-0.035-0.272-0.188-0.396-0.342-0.518l-2.65-1.072l-0.611-2.721
			c-0.156-0.121-0.311-0.242-0.465-0.361c0,0-0.277,0.031-0.396,0.187l-1.97,2.197L412.438,87.824z"/>
		<path fill="#E50302" d="M499.742,47.21l0.215-2.822l2.344-1.407c0.277-0.031,0.396-0.188,0.365-0.461
			c-0.035-0.277-0.191-0.398-0.346-0.52l-2.682-1.348l-0.612-2.722c-0.155-0.121-0.308-0.243-0.465-0.364
			c0,0-0.274,0.032-0.396,0.19l-1.969,2.196l-2.82-0.212c-0.156-0.12-0.279,0.033-0.396,0.187c-0.123,0.154-0.09,0.431,0.064,0.553
			l1.563,2.464l-1.076,2.649c-0.119,0.153-0.084,0.429,0.068,0.551c0.155,0.121,0.155,0.121,0.155,0.121
			c0.155,0.119,0.308,0.242,0.431,0.085l2.721-0.612l2.045,1.85c0.154,0.119,0.308,0.241,0.426,0.086
			C499.502,47.52,499.623,47.365,499.742,47.21z"/>
	</g>
</g>
<g>
	<g>
		<polygon fill="#FFFFFF" points="258.835,229.579 251.148,229.579 251.148,237.265 243.464,237.265 243.464,229.579 
			235.776,229.579 235.776,237.265 235.776,244.951 243.464,244.951 251.148,244.951 258.835,244.951 258.835,237.265 
			266.521,237.265 266.521,229.579 		"/>
		<rect x="266.521" y="237.265" fill="#FFFFFF" width="7.686" height="7.687"/>
		<rect x="274.206" y="229.579" fill="#FFFFFF" width="7.687" height="7.686"/>
		<polygon fill="#FFFFFF" points="266.521,214.207 258.835,214.207 258.835,206.521 251.148,206.521 251.148,214.207 
			251.148,221.893 258.835,221.893 266.521,221.893 266.521,229.579 274.206,229.579 274.206,221.893 281.893,221.893 
			281.893,214.207 274.206,214.207 274.206,206.521 266.521,206.521 		"/>
		<rect x="274.206" y="198.836" fill="#FFFFFF" width="7.687" height="7.686"/>
		<rect x="258.835" y="198.836" fill="#FFFFFF" width="7.686" height="7.686"/>
		<rect x="243.464" y="221.893" fill="#FFFFFF" width="7.685" height="7.687"/>
		<polygon fill="#FFFFFF" points="243.464,198.836 235.776,198.836 235.776,206.521 235.776,214.207 243.464,214.207 
			243.464,206.521 251.148,206.521 251.148,198.836 		"/>
	</g>
	<g transform="translate(-7260.676,7732.7232)">
		<path fill="#FFFFFF" d="M7477.631-7484.047v-15.096h5.093h5.093v10.004v10.002h10.05h10.049v5.095v5.093h-15.142h-15.143
			V-7484.047z M7531.198-7474.042v-5.095h10.004h10.002v-10.002v-10.004h5.094h5.092v15.096v15.098h-15.096h-15.096V-7474.042z
			 M7477.631-7537.566v-15.144h15.143h15.142v5.094v5.093h-10.049h-10.05v10.049v10.051h-5.093h-5.093V-7537.566z
			 M7551.204-7532.475v-10.049h-10.002h-10.004v-5.093v-5.094h15.096h15.096v15.144v15.143h-5.092h-5.094V-7532.475z"/>
	</g>
</g>
<path fill-rule="evenodd" clip-rule="evenodd" fill="#FFFFFF" d="M328.601,217.207c-2.63,0-5.202,0-7.808,0
	c0-5.816,0-11.612,0-17.444c-1.086,0-2.145,0-3.215,0c0-2.199,0-4.362,0-6.559c1.063,0,2.12,0,3.27,0
	c0-0.771-0.055-1.516,0.016-2.25c0.072-0.807,0.179-1.624,0.405-2.397c0.592-2.01,2.081-3.132,3.983-3.773
	c1.286-0.434,2.624-0.533,3.971-0.484c1.764,0.064,3.475,0.421,5.143,0.98c0.058,0.021,0.111,0.046,0.206,0.086
	c-0.382,1.969-0.765,3.934-1.144,5.887c-0.795-0.154-1.545-0.33-2.309-0.43c-0.54-0.07-1.092-0.063-1.633-0.039
	c-0.505,0.021-0.699,0.191-0.775,0.679c-0.089,0.557-0.115,1.122-0.173,1.729c1.499,0,2.937,0,4.394,0c0,2.204,0,4.366,0,6.559
	c-1.446,0-2.877,0-4.331,0C328.601,205.579,328.601,211.376,328.601,217.207z M328.778,188.952 M330.979,197.775
	c0-0.882,0-1.724,0-2.609 M319.545,195.179c0,0.885,0,1.736,0,2.621"/>
</svg>
